<svg width="20" height="21" viewBox="0 0 20 21" fill="none" xmlns="http://www.w3.org/2000/svg">
<path d="M9.98633 2.16666C5.38576 2.16666 1.66675 5.88566 1.66675 10.4862C1.66675 15.0867 5.38576 18.8333 9.98633 18.8333C14.5868 18.8333 18.3334 15.0867 18.3334 10.4862C18.3334 5.88566 14.5868 2.16666 9.98633 2.16666ZM17.0662 10.7342C15.4408 10.624 13.7328 10.7892 12.0524 11.2025C11.8045 10.5413 11.5566 9.90774 11.2811 9.27407C13.0166 8.69558 14.642 7.84159 16.0469 6.82231C16.7081 7.89668 17.0662 9.16391 17.0662 10.5137C17.0937 10.5688 17.0662 10.6515 17.0662 10.7342ZM15.3031 5.80302C13.9808 6.79476 12.4106 7.59366 10.7301 8.11707C9.84858 6.35398 8.85683 4.86638 7.81001 3.70936C8.49875 3.48897 9.215 3.37878 9.98633 3.37878C12.1075 3.40632 14.0083 4.34296 15.3031 5.80302ZM6.59788 4.26032C7.64471 5.30716 8.63641 6.73966 9.518 8.4752C7.34168 8.99857 5.11028 9.08124 3.09926 8.72313C3.62267 6.79476 4.8899 5.19696 6.59788 4.26032ZM2.90641 9.93524C3.81551 10.1281 4.75216 10.2107 5.68879 10.2107C7.1213 10.2107 8.60891 10.0179 10.069 9.63224C10.3444 10.2382 10.6199 10.8719 10.8403 11.5331C8.41608 12.3044 6.26731 13.5165 4.55931 15.0867C3.54002 13.8196 2.90641 12.2217 2.90641 10.4862C2.90641 10.2934 2.90641 10.1281 2.90641 9.93524ZM5.44086 15.9407C7.01111 14.5082 9.02216 13.3787 11.2535 12.6901C11.3362 12.9656 11.4188 13.2411 11.5015 13.489C11.8596 14.7287 12.1351 15.9683 12.3279 17.1529C11.5841 17.4008 10.8127 17.5661 9.98633 17.5661C8.25077 17.5937 6.68053 16.9601 5.44086 15.9407ZM13.5125 16.6295C13.3197 15.5 13.0442 14.3154 12.7136 13.1308C12.6309 12.8553 12.5483 12.6074 12.4657 12.3319C13.9532 11.9738 15.4959 11.8361 16.9285 11.9187C16.5152 13.9573 15.2205 15.6377 13.5125 16.6295Z" fill="#363638"/>
</svg>
