<svg width="20" height="21" viewBox="0 0 20 21" fill="none" xmlns="http://www.w3.org/2000/svg">
<path d="M16.422 3H3.62362C3.01879 3 2.53491 3.48387 2.53491 4.08871V16.9113C2.53491 17.4919 3.01879 18 3.62362 18H16.3737C16.9785 18 17.4623 17.5162 17.4623 16.9113V4.06452C17.5108 3.48388 17.0268 3 16.422 3ZM6.96235 15.75H4.76073V8.6129H6.96235V15.75ZM5.84944 7.62097C5.12364 7.62097 4.56717 7.04033 4.56717 6.33871C4.56717 5.6371 5.14783 5.05645 5.84944 5.05645C6.55105 5.05645 7.1317 5.6371 7.1317 6.33871C7.1317 7.04033 6.59944 7.62097 5.84944 7.62097ZM15.3091 15.75H13.1075V12.2903C13.1075 11.4677 13.0833 10.379 11.9463 10.379C10.7849 10.379 10.6156 11.2984 10.6156 12.2177V15.75H8.41392V8.6129H10.5672V9.60483H10.5913C10.9059 9.02417 11.6075 8.44355 12.6963 8.44355C14.9463 8.44355 15.3575 9.89517 15.3575 11.879V15.75H15.3091Z" fill="#363638"/>
</svg>
