<svg width="20" height="21" viewBox="0 0 20 21" fill="none" xmlns="http://www.w3.org/2000/svg">
<path fill-rule="evenodd" clip-rule="evenodd" d="M18.3334 5.71374V14.875C18.3334 15.9105 17.4939 16.75 16.4584 16.75H3.54175C2.50621 16.75 1.66675 15.9105 1.66675 14.875V5.69498C1.66675 5.68643 1.66692 5.67792 1.66726 5.66945C1.68159 4.8831 2.32351 4.25 3.11335 4.25H16.8871C17.6858 4.25 18.3334 4.89747 18.3335 5.69624C18.3335 5.70207 18.3335 5.70791 18.3334 5.71374ZM2.91675 7.3225V14.875C2.91675 15.2202 3.19657 15.5 3.54175 15.5H16.4584C16.8036 15.5 17.0834 15.2202 17.0834 14.875V7.32289L11.0728 11.5142C10.4285 11.9636 9.57225 11.9636 8.92792 11.5142L2.91675 7.3225ZM17.0834 5.6905V5.69498V5.7028C17.0814 5.76461 17.0504 5.82202 16.9994 5.85754L10.3578 10.4889C10.1431 10.6387 9.85767 10.6387 9.64283 10.4889L3.00105 5.85738C2.94841 5.82068 2.91704 5.76057 2.91701 5.6964C2.91698 5.58794 3.00489 5.5 3.11335 5.5H16.8871C16.9936 5.5 17.0803 5.58476 17.0834 5.6905Z" fill="#363638"/>
</svg>
